# xmcd
#
# Track frame offsets: 
#        150
#        19248
#        50046
#        73344
#        93792
#        115365
#        144363
#        166386
#        195084
#
# Disc length: 2824 seconds
#
# Revision: 0
# Processed by: cddbd v1.5.2PL0 Copyright (c) Steve Scherf et al.
# Submitted via: ExactAudioCopy v1.0b5
#
DISCID=780b0609
DTITLE=Mike Munson and Mikkel Beckmen - Live At Ed's
DYEAR=2013
DGENRE=Blues
TTITLE0=Rattle Can Black
TTITLE1=Too Far Gone
TTITLE2=Blackbird
TTITLE3=Sad and Lonely
TTITLE4=Watch and Chain
TTITLE5=Over Now
TTITLE6=Wanda's Farm
TTITLE7=Good Gal Said
TTITLE8=Rosie (Traditional)
EXTD=
EXTT0=
EXTT1=
EXTT2=
EXTT3=
EXTT4=
EXTT5=
EXTT6=
EXTT7=
EXTT8=
PLAYORDER=
